<svg id="aeffe221-8b28-4193-a260-e463cdaa123f" data-name="Layer 1" xmlns="http://www.w3.org/2000/svg" viewBox="0 0 789.59 174.24"><defs><style>.e6360401-fcde-4040-8f42-29beb7596f0d{fill:#00afae;}</style></defs><polygon class="e6360401-fcde-4040-8f42-29beb7596f0d" points="99.23 31.32 52.05 31.32 13.99 31.32 4.87 49.88 39.88 49.88 39.88 142.91 60.2 142.91 60.2 49.88 90.11 49.88 99.23 31.32"/><path class="e6360401-fcde-4040-8f42-29beb7596f0d" d="M288.41,64.45a43.78,43.78,0,0,0-19.34-5.08l.1-.07h-66.8v-21H184.7l-2.65,21H122.42l0,0a44.08,44.08,0,0,0-20.72,5.28A40.47,40.47,0,0,0,86.37,79.32a41.12,41.12,0,0,0-5.72,21.79,41.68,41.68,0,0,0,5.63,21.79,39.9,39.9,0,0,0,15.3,14.71,44.43,44.43,0,0,0,21.76,5.3,44.59,44.59,0,0,0,21.69-5.3A39.74,39.74,0,0,0,160.4,122.9,41.58,41.58,0,0,0,166,101.11a41.53,41.53,0,0,0-5.63-21.79c-.3-.52-.68-1-1-1.46h22.66v35.05q0,16.83,8.3,23.41t22.09,6.59H220L227.91,126H214.56q-6.72,0-9.45-2.34t-2.74-8.58V77.86h27.38c-.41.62-.86,1.2-1.23,1.86a43.76,43.76,0,0,0-5.49,22,41.16,41.16,0,0,0,5.57,21.55A38.3,38.3,0,0,0,244,137.77a46.91,46.91,0,0,0,22.3,5.14h34l7.9-16.88h-41.9a22.16,22.16,0,0,1-14.95-5.3c-4.12-3.54-6.4-6-6.85-12.2h63.7c.11-1.39.19-5.17.25-6.46s.08-2.52.08-3.7a37.83,37.83,0,0,0-20.1-33.92ZM138,119a20.33,20.33,0,0,1-14.63,6,20,20,0,0,1-14.53-6q-6.15-6-6.14-17.93t6.14-17.93a20.64,20.64,0,0,1,29.16,0q6.21,6,6.22,17.93T138,119ZM244.82,93.23q1.69-8.69,7.77-13a23.92,23.92,0,0,1,14-4.26,20.87,20.87,0,0,1,13.85,4.67,17,17,0,0,1,6.08,12.54Z"/><path class="e6360401-fcde-4040-8f42-29beb7596f0d" d="M418.58,59.3a35.74,35.74,0,0,0-16.68,4A32.15,32.15,0,0,0,389.74,74q-8-14.64-27.33-14.65a32.07,32.07,0,0,0-15.34,3.54,29.34,29.34,0,0,0-10.64,9.46l-1.85-13H315.64v83.61H337.1V100.78q0-11.19,5.28-17.45a17.22,17.22,0,0,1,13.83-6.25q8.71,0,12.91,5.59t4.19,16.13v44.11h21.46V100.78q0-11.19,5.28-17.45a17.41,17.41,0,0,1,14-6.25q8.55,0,12.66,5.59t4.11,16.13v44.11h21.45V96.83q0-18.43-8.71-28T418.58,59.3Z"/><polygon class="e6360401-fcde-4040-8f42-29beb7596f0d" points="523.18 31.32 479.63 142.91 501.46 142.91 523.38 85.3 545.76 142.91 580.17 142.91 580.17 126.97 561.11 126.97 523.18 31.32"/><path class="e6360401-fcde-4040-8f42-29beb7596f0d" d="M780.46,103.76a26.39,26.39,0,0,0-11.39-6.91q-7.11-2.34-15.64-4.26a71.16,71.16,0,0,1-12.61-3.86c-3.17-1.4-4.75-3.27-4.75-5.63a6.69,6.69,0,0,1,3.2-5.63c2.12-1.5,5.16-2.25,9.09-2.25q11.79,0,13.59,8.84h19.82q-1.63-11.57-10.24-18.17t-23-6.59q-15.56,0-24.16,7.24t-8.6,17.85a16.39,16.39,0,0,0,2.79,9.72,21.48,21.48,0,0,0,7.29,6.44,49.36,49.36,0,0,0,9.91,4.09q5.4,1.62,10.64,2.74A82.48,82.48,0,0,1,759.17,111c3.05,1.23,3.52,3.06,3.52,6.49a9.7,9.7,0,0,1-3,7.2c-2.13,1.83-4.65,1.34-9.23,1.34h-33l-7.89,16.88h40.91a46.64,46.64,0,0,0,18.5-3.37,27,27,0,0,0,11.8-9.33,22.2,22.2,0,0,0,3.93-13.34C784.72,111.18,783.3,106.82,780.46,103.76Z"/><path class="e6360401-fcde-4040-8f42-29beb7596f0d" d="M697,126q-6.72,0-9.45-2.34t-2.74-8.58V77.86h20.66V59.3H684.8v-21H667.13l-2.65,21h-15c-29,0-40.41,15.29-40.41,15.29L607,58.82H587.3v84.09h22.1V104.6s0-26.74,40.07-26.74h15v35.05q0,16.83,8.31,23.41t22.08,6.59h7.58L710.34,126Z"/></svg>